<svg width="248" height="58" viewBox="0 0 248 58" fill="none" xmlns="http://www.w3.org/2000/svg">
<g clip-path="url(#clip0_3057_1396)">
<path d="M74.5437 15.6544C76.5417 15.6544 77.9341 16.0119 78.7159 16.7245C79.5002 17.437 79.8898 18.442 79.8898 19.7371C79.8898 20.6271 79.7335 21.3847 79.4232 22.0047C79.113 22.6272 78.5645 23.1122 77.7802 23.4622C76.9959 23.8123 75.9162 23.9848 74.5412 23.9848H71.4065V26.6549H67.7009C67.7804 24.6923 67.8225 22.8572 67.8225 21.1471C67.8225 19.4371 67.7828 17.602 67.7009 15.6394H71.4065V15.6544H74.5437ZM73.4889 21.0571C74.3228 21.0571 74.9483 21.0246 75.3652 20.9596C75.7822 20.8946 76.0726 20.7746 76.2389 20.6021C76.4052 20.4296 76.4871 20.1771 76.4871 19.8446C76.4871 19.5121 76.4101 19.2596 76.2538 19.0921C76.0974 18.9245 75.812 18.812 75.395 18.7495C74.978 18.6895 74.3427 18.6595 73.4889 18.6595H71.409V21.0571H73.4889Z" fill="#EDDC11"/>
<path d="M92.5554 21.5421C92.1285 22.1496 91.3988 22.5897 90.3638 22.8622C90.4854 23.0247 90.5698 23.1497 90.6194 23.2422L93.0592 26.6573H88.9615C88.5197 25.8273 87.8223 24.6547 86.8667 23.1372H84.6528V26.6573H81.0986C81.1781 24.6947 81.2202 22.8597 81.2202 21.1496C81.2202 19.4395 81.1805 17.6044 81.0986 15.6418H84.6528V15.6568H87.7404C89.7681 15.6568 91.1853 15.9844 91.9895 16.6419C92.7936 17.2994 93.1957 18.1895 93.1957 19.312C93.1957 20.192 92.9822 20.9346 92.5554 21.5421ZM84.6528 18.567V20.2971H86.6855C87.5393 20.2971 88.1846 20.2695 88.6214 20.2145C89.0583 20.1595 89.3611 20.0695 89.5323 19.9495C89.7036 19.8295 89.788 19.652 89.788 19.4195C89.788 19.197 89.7085 19.0245 89.5472 18.9045C89.3859 18.782 89.0856 18.697 88.6438 18.647C88.202 18.597 87.5492 18.572 86.6855 18.572H84.6528V18.567Z" fill="#EDDC11"/>
<path d="M96.0273 25.2972C94.9427 24.2897 94.4016 22.8771 94.4016 21.057C94.4016 19.2569 94.9402 17.8494 96.0198 16.8393C97.0995 15.8268 98.7947 15.3218 101.105 15.3218C103.426 15.3218 105.126 15.8268 106.206 16.8393C107.285 17.8519 107.827 19.2569 107.827 21.057C107.827 22.8871 107.288 24.3047 106.216 25.3047C105.141 26.3073 103.438 26.8073 101.108 26.8073C98.8021 26.8073 97.1119 26.3048 96.0273 25.2972ZM103.513 23.0671C104.004 22.6371 104.25 21.9671 104.25 21.057C104.25 20.167 104.004 19.5045 103.513 19.0694C103.021 18.6344 102.217 18.4169 101.103 18.4169C99.9984 18.4169 99.1992 18.6344 98.7078 19.0694C98.2164 19.5045 97.9707 20.167 97.9707 21.057C97.9707 21.9571 98.2164 22.6246 98.7078 23.0596C99.1992 23.4946 99.9984 23.7121 101.103 23.7121C102.217 23.7121 103.021 23.4971 103.513 23.0671Z" fill="#EDDC11"/>
<path d="M115.236 20.3721H121.669V26.6548H119.018L118.703 23.9697C118.403 24.9298 117.864 25.6448 117.092 26.1098C116.318 26.5748 115.375 26.8073 114.26 26.8073C113.245 26.8073 112.344 26.5798 111.555 26.1248C110.766 25.6698 110.148 25.0173 109.701 24.1672C109.254 23.3172 109.031 22.3271 109.031 21.1921C109.031 19.382 109.567 17.9495 110.642 16.8969C111.716 15.8444 113.389 15.3193 115.658 15.3193C116.953 15.3193 118.095 15.5318 119.085 15.9569C120.076 16.3819 120.915 17.0394 121.61 17.9295C121.158 18.162 120.274 18.627 118.959 19.3245L118.582 19.537C118.189 19.142 117.733 18.847 117.212 18.6495C116.69 18.452 116.137 18.3545 115.554 18.3545C114.591 18.3545 113.871 18.6095 113.399 19.122C112.928 19.632 112.692 20.2621 112.692 21.0121C112.692 21.8221 112.945 22.4747 113.454 22.9697C113.96 23.4647 114.737 23.7122 115.782 23.7122C116.234 23.7122 116.673 23.6472 117.1 23.5147C117.527 23.3822 117.887 23.1547 118.177 22.8322H115.238V20.3721H115.236Z" fill="#EDDC11"/>
<path d="M134.329 21.5421C133.902 22.1496 133.173 22.5897 132.138 22.8622C132.259 23.0247 132.344 23.1497 132.393 23.2422L134.833 26.6573H130.735C130.294 25.8273 129.596 24.6547 128.641 23.1372H126.427V26.6573H122.873C122.952 24.6947 122.994 22.8597 122.994 21.1496C122.994 19.4395 122.954 17.6044 122.873 15.6418H126.427V15.6568H129.514C131.542 15.6568 132.959 15.9844 133.763 16.6419C134.568 17.2994 134.97 18.1895 134.97 19.312C134.97 20.192 134.756 20.9346 134.329 21.5421ZM126.427 18.567V20.2971H128.459C129.313 20.2971 129.959 20.2695 130.395 20.2145C130.832 20.1595 131.135 20.0695 131.306 19.9495C131.478 19.8295 131.562 19.652 131.562 19.4195C131.562 19.197 131.482 19.0245 131.321 18.9045C131.16 18.782 130.86 18.697 130.418 18.647C129.976 18.597 129.323 18.572 128.459 18.572H126.427V18.567Z" fill="#EDDC11"/>
<path d="M144.776 26.6549C144.585 26.0774 144.329 25.3549 144.006 24.4848H139.201L138.449 26.6549H134.667L138.886 15.637H144.431L148.68 26.6549H144.776ZM143.15 22.1172C142.768 21.0547 142.376 19.9922 141.976 18.9296L141.614 17.9446C141.261 18.8646 140.745 20.2572 140.063 22.1172H143.15Z" fill="#EDDC11"/>
<path d="M163.561 15.6394L164.735 26.6574H160.834L160.593 18.797L159.086 26.6574H155.14L153.604 18.857L153.378 26.6574H149.476L150.65 15.6394H155.773L157.084 22.8172L158.228 15.6394H163.561Z" fill="#EDDC11"/>
<path d="M175.448 26.6549C175.257 26.0774 175.001 25.3549 174.678 24.4848H169.873L169.121 26.6549H165.339L169.558 15.637H175.103L179.352 26.6549H175.448ZM173.822 22.1172C173.44 21.0547 173.048 19.9922 172.648 18.9296L172.286 17.9446C171.933 18.8646 171.417 20.2572 170.735 22.1172H173.822Z" fill="#EDDC11"/>
<path d="M189.143 16.162C190.238 16.622 191.005 17.2595 191.442 18.0745C191.878 18.8896 192.097 19.8871 192.097 21.0722C192.097 22.1947 191.846 23.1773 191.342 24.0173C190.841 24.8573 190.086 25.5074 189.084 25.9674C188.079 26.4274 186.845 26.6574 185.378 26.6574C184.485 26.6574 183.576 26.6574 182.651 26.6574C181.727 26.6574 180.792 26.6524 179.848 26.6424C179.928 24.6498 179.97 22.7922 179.97 21.0722C179.97 19.3321 179.93 17.517 179.848 15.6244C181.042 15.5244 182.651 15.4719 184.668 15.4719C186.557 15.4719 188.049 15.7019 189.143 16.162ZM185.798 23.6348C186.731 23.6348 187.354 23.4073 187.667 22.9522C187.979 22.4972 188.133 21.8697 188.133 21.0722C188.133 20.3046 187.969 19.6821 187.644 19.2046C187.317 18.7296 186.704 18.4921 185.798 18.4921C184.822 18.4921 184.095 18.5221 183.614 18.5821V23.6348H185.798Z" fill="#EDDC11"/>
<path d="M194.929 25.2972C193.844 24.2897 193.303 22.8771 193.303 21.057C193.303 19.2569 193.842 17.8494 194.921 16.8393C196.001 15.8268 197.696 15.3218 200.007 15.3218C202.327 15.3218 204.028 15.8268 205.107 16.8393C206.187 17.8519 206.728 19.2569 206.728 21.057C206.728 22.8871 206.189 24.3047 205.117 25.3047C204.042 26.3073 202.34 26.8073 200.009 26.8073C197.703 26.8073 196.013 26.3048 194.929 25.2972ZM202.414 23.0671C202.906 22.6371 203.151 21.9671 203.151 21.057C203.151 20.167 202.906 19.5045 202.414 19.0694C201.923 18.6344 201.119 18.4169 200.004 18.4169C198.9 18.4169 198.101 18.6344 197.609 19.0694C197.118 19.5045 196.872 20.167 196.872 21.057C196.872 21.9571 197.118 22.6246 197.609 23.0596C198.101 23.4946 198.9 23.7121 200.004 23.7121C201.119 23.7121 201.923 23.4971 202.414 23.0671Z" fill="#EDDC11"/>
<path d="M219.386 21.5421C218.959 22.1496 218.229 22.5897 217.194 22.8622C217.316 23.0247 217.4 23.1497 217.45 23.2422L219.89 26.6573H215.792C215.35 25.8273 214.653 24.6547 213.697 23.1372H211.483V26.6573H207.929C208.008 24.6947 208.051 22.8597 208.051 21.1496C208.051 19.4395 208.011 17.6044 207.929 15.6418H211.483V15.6568H214.571C216.598 15.6568 218.016 15.9844 218.82 16.6419C219.624 17.2994 220.026 18.1895 220.026 19.312C220.026 20.192 219.813 20.9346 219.386 21.5421ZM211.483 18.567V20.2971H213.516C214.37 20.2971 215.015 20.2695 215.452 20.2145C215.889 20.1595 216.191 20.0695 216.363 19.9495C216.534 19.8295 216.618 19.652 216.618 19.4195C216.618 19.197 216.539 19.0245 216.378 18.9045C216.216 18.782 215.916 18.697 215.474 18.647C215.032 18.597 214.38 18.572 213.516 18.572H211.483V18.567Z" fill="#EDDC11"/>
<path d="M224.787 23.8797C228.604 23.8597 231.369 23.8047 233.087 23.7122C233.017 24.1272 232.972 24.5547 232.957 24.9948C232.943 25.4348 232.935 25.9898 232.935 26.6573H221.23C221.31 24.6947 221.352 22.8597 221.352 21.1496C221.352 19.4395 221.312 17.6044 221.23 15.6418H232.935V18.3895H224.784V19.847C225.266 19.857 225.978 19.862 226.924 19.862C228.52 19.862 230.173 19.832 231.88 19.772V22.3821C230.173 22.3221 228.52 22.2921 226.924 22.2921C225.981 22.2921 225.266 22.2971 224.784 22.3071V23.8797H224.787Z" fill="#EDDC11"/>
<path d="M235.143 23.9098C235.369 23.4648 235.588 22.9497 235.799 22.3622C236.511 22.7772 237.34 23.0998 238.285 23.3348C239.229 23.5673 240.107 23.6823 240.921 23.6823C241.755 23.6823 242.343 23.6098 242.684 23.4623C243.024 23.3148 243.195 23.1573 243.195 22.9848C243.195 22.3672 242.262 22.0597 240.393 22.0597C238.345 22.0597 236.858 21.8447 235.933 21.4147C235.009 20.9847 234.548 20.2896 234.548 19.3271C234.548 17.962 235.111 16.9545 236.235 16.307C237.36 15.6594 238.822 15.3369 240.619 15.3369C241.663 15.3369 242.736 15.4719 243.835 15.7394C244.935 16.0069 245.927 16.3745 246.811 16.8395C246.521 17.507 246.213 18.322 245.893 19.2821C245.833 19.4846 245.781 19.6371 245.741 19.7371C245.23 19.3221 244.456 18.9746 243.421 18.6971C242.386 18.4196 241.472 18.2795 240.678 18.2795C239.723 18.2795 239.082 18.342 238.75 18.4696C238.417 18.5971 238.253 18.7796 238.253 19.0246C238.253 19.2671 238.482 19.4621 238.938 19.6096C239.395 19.7571 240.055 19.8296 240.919 19.8296C243.048 19.8296 244.595 20.0746 245.56 20.5646C246.523 21.0547 247.007 21.8072 247.007 22.8172C247.007 24.2348 246.496 25.2524 245.471 25.8749C244.446 26.4974 242.895 26.8074 240.815 26.8074C239.7 26.8074 238.566 26.6824 237.409 26.4349C236.255 26.1874 235.215 25.8249 234.292 25.3499C234.632 24.8348 234.917 24.3548 235.143 23.9098Z" fill="#EDDC11"/>
<path d="M154.853 36.5203H101.786V39.9479H154.853V36.5203Z" fill="#EDDC11"/>
<path d="M76.9981 32.4776C78.0926 32.9376 78.8595 33.5751 79.2964 34.3902C79.7332 35.2052 79.9516 36.2028 79.9516 37.3878C79.9516 38.5104 79.7009 39.4929 79.1971 40.3329C78.6957 41.173 77.9412 41.823 76.9385 42.283C75.9333 42.743 74.6998 42.9731 73.2329 42.9731C72.3394 42.9731 71.431 42.9731 70.5053 42.9731C69.582 42.9731 68.6463 42.9681 67.7031 42.9581C67.7825 40.9655 67.8247 39.1079 67.8247 37.3903C67.8247 35.6502 67.785 33.8351 67.7031 31.9426C68.8969 31.8426 70.5053 31.7901 72.5231 31.7901C74.4119 31.7876 75.9035 32.0176 76.9981 32.4776ZM73.6549 39.9504C74.5881 39.9504 75.2111 39.7229 75.5238 39.2679C75.834 38.8129 75.9904 38.1853 75.9904 37.3853C75.9904 36.6153 75.8266 35.9952 75.5014 35.5177C75.1738 35.0427 74.5608 34.8052 73.6549 34.8052C72.6795 34.8052 71.9522 34.8352 71.4707 34.8952V39.9479H73.6549V39.9504Z" fill="#4E2050"/>
<path d="M82.7834 41.6129C81.6988 40.6053 81.1577 39.1928 81.1577 37.3727C81.1577 35.5726 81.6963 34.1651 82.776 33.155C83.8556 32.1425 85.5508 31.6375 87.8615 31.6375C90.1821 31.6375 91.8823 32.1425 92.9619 33.155C94.0416 34.1676 94.5826 35.5726 94.5826 37.3727C94.5826 39.2028 94.044 40.6203 92.9718 41.6229C91.8972 42.6254 90.1945 43.1255 87.864 43.1255C85.5607 43.123 83.868 42.6204 82.7834 41.6129ZM90.2715 39.3828C90.7629 38.9528 91.0086 38.2827 91.0086 37.3727C91.0086 36.4827 90.7629 35.8201 90.2715 35.3851C89.78 34.9501 88.9759 34.7326 87.8615 34.7326C86.757 34.7326 85.9578 34.9501 85.4664 35.3851C84.975 35.8201 84.7293 36.4827 84.7293 37.3727C84.7293 38.2727 84.975 38.9403 85.4664 39.3753C85.9578 39.8103 86.757 40.0278 87.8615 40.0278C88.9759 40.0278 89.78 39.8128 90.2715 39.3828Z" fill="#4E2050"/>
<path d="M171.846 42.9706C171.655 42.3931 171.4 41.6706 171.077 40.8005H166.272L165.52 42.9706H161.737L165.957 31.9526H171.501L175.75 42.9706H171.846ZM170.221 38.4329C169.838 37.3704 169.446 36.3078 169.047 35.2453L168.684 34.2577C168.332 35.1778 167.816 36.5703 167.133 38.4304H170.221V38.4329Z" fill="#4E2050"/>
<path d="M190.632 31.9551L191.806 42.9731H187.904L187.664 35.1127L186.157 42.9731H182.211L180.674 35.1727L180.449 42.9731H176.547L177.721 31.9551H182.844L184.154 39.1329L185.298 31.9551H190.632Z" fill="#4E2050"/>
<path d="M202.518 42.9706C202.327 42.3931 202.072 41.6706 201.749 40.8005H196.944L196.192 42.9706H192.409L196.629 31.9526H202.173L206.423 42.9706H202.518ZM200.893 38.4329C200.511 37.3704 200.118 36.3078 199.719 35.2453L199.356 34.2577C199.004 35.1778 198.488 36.5703 197.805 38.4304H200.893V38.4329Z" fill="#4E2050"/>
<path d="M219.557 31.97C219.487 33.68 219.452 35.5101 219.452 37.4627C219.452 39.4253 219.487 41.2629 219.557 42.9705H214.163L210.517 34.6851L210.788 42.9705H206.916C206.995 41.0079 207.038 39.1703 207.038 37.4627C207.038 35.7626 206.998 33.9326 206.916 31.97H212.461L216.122 40.4828L215.866 31.97H219.557Z" fill="#4E2050"/>
<path d="M233.387 31.9551C233.317 33.6652 233.282 35.5002 233.282 37.4628C233.282 39.4254 233.317 41.263 233.387 42.9706H229.847V38.8429H224.303V42.9706H220.763C220.843 41.008 220.885 39.1704 220.885 37.4628C220.885 35.7527 220.845 33.9177 220.763 31.9551H224.303V36.0828H229.847V31.9551H233.387Z" fill="#4E2050"/>
<path d="M244.098 42.9706C243.907 42.3931 243.651 41.6706 243.329 40.8005H238.524L237.772 42.9706H233.989L238.208 31.9526H243.753L248.002 42.9706H244.098ZM242.47 38.4329C242.088 37.3704 241.696 36.3078 241.296 35.2453L240.934 34.2577C240.581 35.1778 240.065 36.5703 239.382 38.4304H242.47V38.4329Z" fill="#4E2050"/>
<path d="M243.578 28.7424H238.276V30.5625H243.578V28.7424Z" fill="#4E2050"/>
<path d="M28.289 44.4931L25.3801 41.5629L37.6385 29.2149L25.3801 16.8693L28.289 13.9392L43.4538 29.2149L28.289 44.4931Z" fill="#4E2050"/>
<path d="M24.1274 40.3228L13.1001 29.2149L24.1274 18.1094L27.0338 21.037L18.9153 29.2149L27.0338 37.3952L24.1274 40.3228Z" fill="#EDDC11"/>
<path d="M48.2959 37.4352L45.4094 34.4851L50.7084 29.2224L45.4094 23.9572L48.2959 21.0095L56.5634 29.2224L48.2959 37.4352Z" fill="#EDDC11"/>
<path d="M8.26741 37.4304L0 29.2151L8.26741 21.0022L11.1539 23.9523L5.85743 29.2151L11.1539 34.4803L8.26741 37.4304Z" fill="#EDDC11"/>
<path d="M33.5064 11.9567L28.2819 6.62145L23.0574 11.9567L20.1287 9.04906L28.2819 0.721191L36.4351 9.04906L33.5064 11.9567Z" fill="#EDDC11"/>
<path d="M44.2304 7.46143L36.4346 9.02649L37.2387 13.0892L42.8753 11.9566L45.4093 14.5142L44.2726 20.1895L48.3033 21.0095L49.8769 13.1592L44.2304 7.46143Z" fill="#EDDC11"/>
<path d="M12.3351 7.46143L6.68115 13.1517L8.24479 21.002L12.278 20.1895L11.1462 14.5142L13.6852 11.9591L19.3193 13.0992L20.1284 9.039L12.3351 7.46143Z" fill="#EDDC11"/>
<path d="M23.052 46.4856L28.2765 51.8233L33.5011 46.4856L36.4298 49.3932L28.2765 57.7211L20.1233 49.3932L23.052 46.4856Z" fill="#EDDC11"/>
<path d="M19.3193 45.3531L13.6828 46.4857L11.1487 43.9281L12.2854 38.2553L8.25472 37.4353L6.68115 45.2831L12.3276 50.9834L20.1235 49.4158L19.3193 45.3531Z" fill="#EDDC11"/>
<path d="M49.8779 45.2905L48.3143 37.4402L44.2811 38.2552L45.4129 43.928L42.8738 46.4831L37.2398 45.343L36.4307 49.4057L44.224 50.9833L49.8779 45.2905Z" fill="#EDDC11"/>
</g>
<defs>
<clipPath id="clip0_3057_1396">
<rect width="248" height="57" fill="white" transform="translate(0 0.721191)"/>
</clipPath>
</defs>
</svg>
